# xmcd CD database file
#
# Track frame offsets:
#	150
#	28570
#	47806
#	74613
#	92289
#	106964
#	132006
#	147003
#	173502
#	187922
#	208308
#	226159
#	251718
#	268315
#	301447
#	314529
#
# Disc length: 4494 seconds
#
# Revision: 0
# Processed by: cddbd v1.5.1PL2 Copyright (c) Steve Scherf et al.
# Submitted via: CDex 1.51
#
DISCID=df118c10
DTITLE=Various Artist - The Nightfly 10  CD 2 - Emotions
DYEAR=2006
DGENRE=New Age
TTITLE0=Slow Rumba  MARIO BERGER
TTITLE1=Holding Back The Years  SIMPLY RED
TTITLE2=Is Love Enough?  BURT BACHARACH
TTITLE3=One Day I'll Fly Away  NILS LANDGREN and JOE SAMPLE  
TTITLE4=Hey Big Spender  CHAKA KHAN feat. The London Simphony Orchestra
TTITLE5=Nessuna E' Come Te  SERGIO CAMMARIERE
TTITLE6=Nao Tenho Pressa  SANDY MULLER
TTITLE7=Come Sei Veramente  GIOVANNI ALLEVI
TTITLE8=Nine Million Bicycles  KATIE MELUA
TTITLE9=To Love Again  CHRIS BOTTI
TTITLE10=Don't Leave Me This Way (Ohm Guru Remix)  SARAH JANE MORRIS
TTITLE11=Deeper  PETE BELASCO
TTITLE12=I Bruise Easily  NATASHA BEDINGFIELD
TTITLE13=Bumpin'  TIL BRONNER
TTITLE14=I'm Confessin' (That I Love You)  LIZZ WRIGHT
TTITLE15=Asta  LARS DANIELSSON
EXTD=YEAR: 2006
EXTT0=
EXTT1=
EXTT2=
EXTT3=
EXTT4=
EXTT5=
EXTT6=
EXTT7=
EXTT8=
EXTT9=
EXTT10=
EXTT11=
EXTT12=
EXTT13=
EXTT14=
EXTT15=
PLAYORDER=
